<svg width="300" height="200" viewBox="0 0 137 58" fill="none" xmlns="http://www.w3.org/2000/svg">
<path d="M33 7.25L11 21.75V50.75H55V21.75L33 7.25ZM34.375 30.2083C34.375 32.2142 32.5325 33.8333 30.25 33.8333V43.5H27.5V33.8333C25.2175 33.8333 23.375 32.2142 23.375 30.2083V22.9583H26.125V30.2083H27.5V22.9583H30.25V30.2083H31.625V22.9583H34.375V30.2083ZM41.25 43.5H38.5V35.0417H35.75V27.7917C35.75 25.1333 38.225 22.9583 41.25 22.9583V43.5Z" fill="#F01B1B"/>
<path d="M62.8111 49V32.6364H67.3494V49H62.8111ZM65.0909 30.527C64.4162 30.527 63.8374 30.3033 63.3544 29.8558C62.8786 29.4013 62.6406 28.858 62.6406 28.2259C62.6406 27.6009 62.8786 27.0646 63.3544 26.6172C63.8374 26.1626 64.4162 25.9354 65.0909 25.9354C65.7656 25.9354 66.3409 26.1626 66.8168 26.6172C67.2997 27.0646 67.5412 27.6009 67.5412 28.2259C67.5412 28.858 67.2997 29.4013 66.8168 29.8558C66.3409 30.3033 65.7656 30.527 65.0909 30.527ZM79.7846 32.6364V36.0455H69.6852V32.6364H79.7846ZM71.997 49V31.4538C71.997 30.2678 72.2278 29.2841 72.6895 28.5028C73.1582 27.7216 73.7974 27.1357 74.6071 26.745C75.4167 26.3544 76.3365 26.1591 77.3663 26.1591C78.0623 26.1591 78.698 26.2124 79.2733 26.3189C79.8556 26.4254 80.2889 26.5213 80.573 26.6065L79.7633 30.0156C79.5858 29.9588 79.3656 29.9055 79.1028 29.8558C78.8471 29.8061 78.5843 29.7812 78.3145 29.7812C77.6468 29.7812 77.1816 29.9375 76.9189 30.25C76.6561 30.5554 76.5247 30.9851 76.5247 31.5391V49H71.997ZM89.3647 49.3196C87.7099 49.3196 86.2788 48.968 85.0714 48.2649C83.8711 47.5547 82.9442 46.5675 82.2908 45.3033C81.6374 44.032 81.3107 42.5582 81.3107 40.8821C81.3107 39.1918 81.6374 37.7145 82.2908 36.4503C82.9442 35.179 83.8711 34.1918 85.0714 33.4886C86.2788 32.7784 87.7099 32.4233 89.3647 32.4233C91.0195 32.4233 92.4471 32.7784 93.6474 33.4886C94.8548 34.1918 95.7852 35.179 96.4386 36.4503C97.092 37.7145 97.4187 39.1918 97.4187 40.8821C97.4187 42.5582 97.092 44.032 96.4386 45.3033C95.7852 46.5675 94.8548 47.5547 93.6474 48.2649C92.4471 48.968 91.0195 49.3196 89.3647 49.3196ZM89.386 45.804C90.1388 45.804 90.7674 45.5909 91.2717 45.1648C91.7759 44.7315 92.1559 44.142 92.4116 43.3963C92.6744 42.6506 92.8058 41.8018 92.8058 40.8501C92.8058 39.8984 92.6744 39.0497 92.4116 38.304C92.1559 37.5582 91.7759 36.9687 91.2717 36.5355C90.7674 36.1023 90.1388 35.8857 89.386 35.8857C88.6261 35.8857 87.9869 36.1023 87.4684 36.5355C86.957 36.9687 86.57 37.5582 86.3072 38.304C86.0515 39.0497 85.9237 39.8984 85.9237 40.8501C85.9237 41.8018 86.0515 42.6506 86.3072 43.3963C86.57 44.142 86.957 44.7315 87.4684 45.1648C87.9869 45.5909 88.6261 45.804 89.386 45.804ZM107.763 49.3196C106.108 49.3196 104.677 48.968 103.47 48.2649C102.27 47.5547 101.343 46.5675 100.689 45.3033C100.036 44.032 99.7092 42.5582 99.7092 40.8821C99.7092 39.1918 100.036 37.7145 100.689 36.4503C101.343 35.179 102.27 34.1918 103.47 33.4886C104.677 32.7784 106.108 32.4233 107.763 32.4233C109.418 32.4233 110.846 32.7784 112.046 33.4886C113.253 34.1918 114.184 35.179 114.837 36.4503C115.49 37.7145 115.817 39.1918 115.817 40.8821C115.817 42.5582 115.49 44.032 114.837 45.3033C114.184 46.5675 113.253 47.5547 112.046 48.2649C110.846 48.968 109.418 49.3196 107.763 49.3196ZM107.784 45.804C108.537 45.804 109.166 45.5909 109.67 45.1648C110.174 44.7315 110.554 44.142 110.81 43.3963C111.073 42.6506 111.204 41.8018 111.204 40.8501C111.204 39.8984 111.073 39.0497 110.81 38.304C110.554 37.5582 110.174 36.9687 109.67 36.5355C109.166 36.1023 108.537 35.8857 107.784 35.8857C107.025 35.8857 106.385 36.1023 105.867 36.5355C105.355 36.9687 104.968 37.5582 104.706 38.304C104.45 39.0497 104.322 39.8984 104.322 40.8501C104.322 41.8018 104.45 42.6506 104.706 43.3963C104.968 44.142 105.355 44.7315 105.867 45.1648C106.385 45.5909 107.025 45.804 107.784 45.804ZM124.798 49.2663C123.555 49.2663 122.429 48.9467 121.421 48.3075C120.419 47.6612 119.624 46.7131 119.034 45.4631C118.452 44.206 118.161 42.6648 118.161 40.8395C118.161 38.9645 118.463 37.4055 119.066 36.1626C119.67 34.9126 120.473 33.9787 121.474 33.3608C122.483 32.7358 123.587 32.4233 124.787 32.4233C125.703 32.4233 126.467 32.5795 127.078 32.892C127.696 33.1974 128.193 33.581 128.569 34.0426C128.953 34.4972 129.244 34.9446 129.443 35.3849H129.581V27.1818H134.109V49H129.635V46.3793H129.443C129.23 46.8338 128.928 47.2848 128.537 47.7322C128.154 48.1726 127.653 48.5384 127.035 48.8295C126.424 49.1207 125.679 49.2663 124.798 49.2663ZM126.236 45.6548C126.968 45.6548 127.586 45.456 128.09 45.0582C128.601 44.6534 128.992 44.0888 129.262 43.3643C129.539 42.6399 129.677 41.7912 129.677 40.8182C129.677 39.8452 129.542 39 129.272 38.2827C129.002 37.5653 128.612 37.0114 128.1 36.6207C127.589 36.2301 126.968 36.0348 126.236 36.0348C125.49 36.0348 124.862 36.2372 124.35 36.642C123.839 37.0469 123.452 37.608 123.189 38.3253C122.926 39.0426 122.795 39.8736 122.795 40.8182C122.795 41.7699 122.926 42.6115 123.189 43.343C123.459 44.0675 123.846 44.6357 124.35 45.0476C124.862 45.4524 125.49 45.6548 126.236 45.6548Z" fill="black"/>
</svg>
